<?xml version="1.0" encoding="UTF-8" standalone="no"?>
<svg
   version="1.1"
   width="181.03606"
   height="252.89072"
   id="svg5"
   sodipodi:docname="pranch.svg"
   inkscape:version="1.4 (e7c3feb100, 2024-10-09)"
   xmlns:inkscape="http://www.inkscape.org/namespaces/inkscape"
   xmlns:sodipodi="http://sodipodi.sourceforge.net/DTD/sodipodi-0.dtd"
   xmlns="http://www.w3.org/2000/svg"
   xmlns:svg="http://www.w3.org/2000/svg">
  <defs
     id="defs5" />
  <sodipodi:namedview
     id="namedview5"
     pagecolor="#505050"
     bordercolor="#eeeeee"
     borderopacity="1"
     inkscape:showpageshadow="0"
     inkscape:pageopacity="0"
     inkscape:pagecheckerboard="0"
     inkscape:deskcolor="#505050"
     inkscape:zoom="1.6211078"
     inkscape:cx="54.283867"
     inkscape:cy="126.76517"
     inkscape:window-width="1536"
     inkscape:window-height="828"
     inkscape:window-x="0"
     inkscape:window-y="0"
     inkscape:window-maximized="1"
     inkscape:current-layer="svg5" />
  <path
     d="M 36.277344,0.00390625 C 24.978315,0.16705351 14.495266,5.659426 6.5488281,15.033203 c -6.83850193,9.095611 -7.24569922,19.600304 -5.98828123,30.644531 2.23185193,7.178954 6.56621833,14.936559 13.00000013,19 l 4,2 V 186.67773 c -5,2 -5,2 -6.589844,3.30469 -6.1582474,7.1757 -10.6561675,14.64734 -10.9160155,24.26172 0.033943,12.00783 3.0144057,20.75046 11.5058595,29.43359 10.299529,9.14803 19.811586,9.69979 33,9 9.105579,-1.81059 16.425739,-8.47367 21.609375,-15.86718 0.472813,-0.72515 0.931719,-1.42899 1.390625,-2.13282 1.350427,-2.00897 2.37957,-3.88616 3.296875,-6.1289 2.606876,-10.64474 1.804741,-21.00313 -3.789063,-30.48828 -1.318336,-2.08338 -2.443934,-4.1621 -3.507812,-6.38282 0.379844,-0.43297 0.748515,-0.85319 1.117187,-1.27343 8.269222,-7.58298 17.794835,-9.44315 28.546875,-9.625 3.69393,-0.0518 7.310581,-0.3408 10.978521,-0.77539 0.71635,-0.0901 1.41213,-0.17628 2.10742,-0.26368 3.44199,-0.41457 6.56962,-0.8258 9.84375,-1.96484 0.81812,-0.37321 1.61219,-0.73543 2.40625,-1.09766 7.08947,-3.10907 13.22592,-6.44492 18.84765,-11.8125 0.73179,-0.74375 1.44208,-1.46562 2.15235,-2.1875 13.84211,-13.86553 20.35523,-29.36238 22.4375,-48.625 0.14539,-1.86885 0.30974,-3.73635 0.49609,-5.60156 0.53572,-3.559 1.13011,-5.36925 3.9375,-7.66406 3.12891,-2.109379 3.12891,-2.109378 5.10547,-4.179688 6.74769,-8.410631 9.86406,-16.80395 9.46484,-27.660156 -1.51916,-11.252536 -7.61488,-19.682693 -16.3789,-26.582032 -1.04125,-0.57375 -2.05187,-1.130625 -3.0625,-1.6875 -4.9369,-3.060238 -9.19078,-4.2337 -15.04883,-4.371093 -0.72698,-0.0017 -1.43307,-0.0023 -2.13867,-0.0039 -1.34772,-0.0032 -2.69558,0.0093 -4.04297,0.03906 -9.05869,0.807303 -17.32861,5.407139 -23.58203,11.960937 -6.58978,8.245028 -8.91348,16.71702 -8.47657,27.179688 0.94729,10.471425 4.5986,17.062502 12.60157,23.820312 2.69789,1.989396 2.69789,1.989396 4.6875,4.374996 0.45712,4.10353 -0.21729,7.61549 -1.30469,11.58985 -0.2364,0.81945 -0.46586,1.6148 -0.69531,2.41015 -1.88304,6.80727 -3.28167,13.5878 -8,19 -13.05086,7.00286 -13.05086,7.00286 -28.187503,7.5625 -6.58812,0.15522 -12.427248,0.71416 -18.8125,2.4375 l -14,5 V 66.677734 h 2 c 3.022807,-1.876225 5.44039,-4.240849 7.628906,-7.042968 C 71.368002,49.388461 73.140625,39.96436 71.560547,27.677734 68.62552,16.987657 61.637032,8.7510811 52.029297,3.2207031 46.717807,0.95692056 41.413266,-0.07025159 36.277344,0.00390625 Z M 34.785156,18.199219 c 3.378839,-0.125123 6.824407,0.618629 10.087891,2.041015 4.053306,2.376076 6.976513,4.993687 8.6875,9.4375 0.33561,2.404134 0.551265,4.779962 0.482422,7.09375 -0.114987,3.855604 -1.020769,7.54199 -3.482422,10.90625 -1.330177,1.330177 -2.67213,2.536048 -4.06836,3.589844 -0.235108,0.177427 -0.466167,0.369703 -0.705078,0.537109 -0.214275,0.150122 -0.43849,0.276389 -0.65625,0.417969 -1.9288,1.254223 -4.004123,2.16568 -6.361328,2.574219 -0.121884,0.02111 -0.235953,0.05972 -0.359375,0.07813 -0.694575,0.103502 -1.414803,0.164461 -2.162109,0.177734 -0.69384,-0.01823 -1.359227,-0.06297 -2,-0.134765 -1.281546,-0.143599 -2.465516,-0.395449 -3.582031,-0.761719 -2.791287,-0.915675 -5.164533,-2.544892 -7.613282,-4.974609 -1.724409,-1.97568 -2.84663,-3.840215 -3.570312,-5.751954 -1.206104,-3.187181 -1.307633,-6.512187 -1.261719,-10.736328 0.148788,-1.320281 0.408318,-2.48176 0.773438,-3.529297 1.096305,-3.143958 3.154666,-5.285991 6.105468,-7.794921 2.994598,-2.050803 6.306708,-3.0448 9.685547,-3.169922 z M 144.0625,54.310547 c 2.07381,-0.03301 4.31738,0.310653 6.79492,1.085937 5.73756,2.674653 9.17999,6.461929 11.70313,12.28125 0.79001,5.642935 0.20295,10.195564 -3,15 -3.7525,4.496521 -7.07515,7.449012 -13.03125,8.285157 -6.23504,0.416381 -10.24688,-1.261299 -14.96875,-5.285157 -3.25848,-2.973757 -4.77351,-5.50877 -5.44141,-9.90625 -0.18272,-4.762447 0.0146,-8.190853 2.06641,-12.53125 4.95569,-5.346936 9.65552,-8.830647 15.87695,-8.929687 z M 36.085937,198.22852 c 2.218041,-0.003 4.474745,0.44927 6.701172,1.39062 4.721066,2.82026 8.279484,6.07069 10.773438,11.05859 0.732287,6.79982 0.799296,12.73624 -3.394531,18.375 -4.153947,4.20449 -8.698339,5.83253 -14.542969,6.25 -5.82998,-0.25191 -9.818529,-2.75707 -14.0625,-6.625 -3.603305,-4.58602 -3.508121,-9.51595 -3.347656,-15.16015 0.656135,-5.35967 3.538403,-8.23439 7.410156,-11.65235 3.175314,-2.36459 6.766157,-3.63199 10.46289,-3.63671 z"
     style="fill:#06122a"
     id="path11"
     inkscape:label="Tyhjä" />
</svg>
